<svg width="20" height="20" viewBox="0 0 20 20" fill="none" xmlns="http://www.w3.org/2000/svg">
<path d="M4.34398 10.0002L6.4653 12.1216M7.17211 7.17162L9.29343 9.29294M10.0002 4.34349L12.1216 6.46481M3.07054 11.2725L11.273 3.07005C12.065 2.27802 12.4614 1.88201 12.9181 1.73363C13.3198 1.60311 13.7524 1.60311 14.154 1.73363C14.6104 1.88192 15.0061 2.27757 15.7972 3.06871L16.9299 4.20143C17.722 4.99345 18.1184 5.39041 18.2668 5.84706C18.3973 6.24875 18.3971 6.68058 18.2665 7.08226C18.1182 7.53892 17.7222 7.93525 16.9302 8.72728L8.72777 16.9297C7.93574 17.7218 7.53941 18.1177 7.08275 18.2661C6.68106 18.3966 6.24924 18.3968 5.84755 18.2663C5.3909 18.1179 4.99394 17.7215 4.20191 16.9295L3.0692 15.7967C2.27806 15.0056 1.88241 14.6099 1.73412 14.1536C1.6036 13.7519 1.6036 13.3193 1.73412 12.9176C1.88249 12.4609 2.27851 12.0645 3.07054 11.2725Z" stroke="#FFD7D8" stroke-width="2" stroke-linecap="round" stroke-linejoin="round"/>
</svg>
