<svg width="64" height="63" viewBox="0 0 64 63" fill="none" xmlns="http://www.w3.org/2000/svg">
<path d="M11.6372 55.6655C12.2539 56.1592 13.1263 56.2339 13.8333 55.89C16.1646 54.7231 18.4811 53.5564 20.6772 52.27C26.047 49.1138 37.2077 42.3975 32.5147 36.2944C29.9728 32.9886 24.5428 32.48 21.2788 29.8025C18.5713 27.5737 18.7368 24.7765 20.7223 22.3084C28.4686 12.735 47.2554 6.88625 48.8347 6.28792C49.316 6.10841 49.4966 5.62974 49.0754 5.34554C43.5402 1.63587 36.7564 -0.398479 29.4764 0.0652319C13.8032 1.0824 1.09314 13.6923 0.0703229 29.2789C-0.636627 39.9443 4.04127 49.5176 11.6372 55.6806V55.6655Z" fill="#FFD7D8"/>
<path d="M51.8278 7.39522C51.0908 6.78192 50.0529 6.61738 49.1805 7.0063C46.7739 8.0833 44.4124 9.20518 42.1261 10.4168C37.0571 13.0944 26.0467 18.7636 28.9347 24.6123C31.6722 30.1619 44.999 29.9973 42.6525 37.5962C40.652 44.0881 30.6344 48.9645 23.9259 52.39C20.9476 53.9008 17.8642 55.3219 14.7356 56.6831C14.2542 56.8925 14.179 57.5657 14.6302 57.8349C21.1883 61.9934 29.3859 63.8331 38.0649 62.098C50.3688 59.6449 60.1006 49.907 62.4923 37.671C64.8687 25.5397 60.1909 14.3808 51.8428 7.39522H51.8278Z" fill="#FFD7D8"/>
</svg>
