<svg width="280" height="63" viewBox="0 0 280 63" fill="none" xmlns="http://www.w3.org/2000/svg">
<path d="M200.914 42.2901L202.285 41.8048C203.862 41.8608 206.601 42.4021 209.472 41.7862C213.921 40.8156 216.398 37.5495 214.409 33.5183C212.57 29.8228 201.778 18.9792 199.376 16.6276C196.711 14.0147 195.154 10.8046 196.711 7.16515C198.175 3.71236 201.477 2.62988 205.007 2.36858C206.676 2.23794 209.736 2.49923 211.425 2.98448L210.449 3.60039C210.26 3.60039 209.229 3.37642 207.577 3.33909C201.741 3.22711 199.958 5.95201 203.26 10.8605C205.325 13.9214 208.328 16.3476 210.937 19.0166C213.64 21.7975 216.68 24.317 219.044 27.3406C223.042 32.473 221.785 37.9041 216.023 40.9836C211.405 43.4659 206.47 44.0632 200.897 42.2901H200.914Z" fill="#FFD7D8"/>
<path d="M279.363 3.17133V42.4584H272.907V3.17133H279.363Z" fill="#FFD7D8"/>
<path d="M147.747 3.17133H146.64V40.6479C145.852 40.6852 145.232 39.5841 144.988 39.0428C139.733 28.106 134.554 17.2998 129.299 6.34416C128.36 4.40314 126.39 3.17133 124.232 3.17133H119.915C119.99 16.2545 119.84 29.2257 119.915 42.3649C120.291 42.3649 120.647 42.3649 121.023 42.3649C120.966 30.1776 121.079 18.4009 121.023 6.30683C121.023 5.76557 121.754 5.5976 121.98 6.08286C127.328 17.2251 132.639 28.2926 137.932 39.3228C138.851 41.2452 140.822 42.4769 142.961 42.4769H146.602C146.602 42.4769 146.602 42.4769 146.621 42.4584C146.997 42.4769 147.353 42.4769 147.728 42.4769V3.17133H147.747Z" fill="#FFD7D8"/>
<path d="M166.628 41.3384V26.4076C166.628 24.3919 168.278 22.7122 170.306 22.7307H180.477C180.477 22.3762 180.477 22.0216 180.477 21.6483H166.628V4.29111H184.832C184.832 3.91784 184.832 3.56323 184.832 3.18996H160.171V42.4582H184.832C184.832 42.0664 184.832 41.7116 184.832 41.3384H166.628Z" fill="#FFD7D8"/>
<path d="M89.268 41.3384V26.4262C89.268 24.3919 90.9194 22.7307 92.9651 22.7307H103.118C103.118 22.3762 103.118 22.0216 103.118 21.6483H89.268V4.29111H107.472C107.472 3.91784 107.472 3.56323 107.472 3.18996H82.812V42.4582H107.472C107.472 42.0664 107.472 41.7116 107.472 41.3384H89.268Z" fill="#FFD7D8"/>
<path d="M259.975 40.8345C256.129 28.1806 248.433 3.09658 248.433 3.09658H241.846L241.79 3.28323C238.862 12.895 235.991 22.3387 233.101 31.8386L232.744 32.9211H233.965L234.113 32.4358C234.584 30.9054 235.991 29.8603 237.605 29.8603H247.213C248.828 29.8603 250.253 30.9241 250.723 32.4546L253.8 42.5515H260.519L259.994 40.8345H259.975ZM235.241 28.7404C237.624 20.9018 240.007 13.0816 242.409 5.16826C244.811 13.063 247.195 20.9018 249.578 28.7404H235.241Z" fill="#FFD7D8"/>
<path d="M82.812 57.389V49.9982H85.9462C86.7343 49.9982 87.4287 50.1476 88.0481 50.4647C88.6486 50.782 89.1179 51.2113 89.4556 51.7526C89.7934 52.3124 89.9623 52.947 89.9623 53.675C89.9623 54.4029 89.7934 55.056 89.4556 55.5973C89.1179 56.1386 88.6486 56.5864 88.0481 56.9037C87.4476 57.221 86.7343 57.3704 85.9462 57.3704H82.812V57.389ZM83.8817 56.4746H85.8899C86.5091 56.4746 87.0347 56.3626 87.485 56.1199C87.9355 55.8773 88.2733 55.56 88.536 55.1494C88.7988 54.7387 88.9114 54.2536 88.9114 53.6936C88.9114 53.1337 88.7799 52.6484 88.536 52.2379C88.292 51.8273 87.9355 51.4913 87.485 51.2673C87.0347 51.0435 86.5091 50.9315 85.8899 50.9315H83.8817V56.4746Z" fill="#FFD7D8"/>
<path d="M103.869 56.4746H108.185V57.389H102.799V49.9982H108.035V50.9127H103.85V56.4559L103.869 56.4746ZM103.775 53.2083H107.604V54.1042H103.775V53.2083Z" fill="#FFD7D8"/>
<path d="M123.293 57.389L120.028 49.9982H121.173L124.175 56.8104H123.519L126.54 49.9982H127.61L124.363 57.389H123.293Z" fill="#FFD7D8"/>
<path d="M140.991 56.4746H145.307V57.389H139.921V49.9982H145.157V50.9127H140.972V56.4559L140.991 56.4746ZM140.897 53.2083H144.725V54.1042H140.897V53.2083Z" fill="#FFD7D8"/>
<path d="M158.275 57.389V49.9982H159.345V56.4559H163.36V57.3704H158.275V57.389Z" fill="#FFD7D8"/>
<path d="M179.163 57.4824C178.6 57.4824 178.075 57.3891 177.587 57.2026C177.1 57.0159 176.686 56.7546 176.329 56.4C175.972 56.064 175.71 55.6721 175.504 55.2056C175.297 54.7389 175.203 54.2537 175.203 53.7124C175.203 53.1712 175.297 52.6673 175.504 52.2193C175.691 51.7715 175.972 51.3607 176.329 51.0249C176.686 50.6889 177.1 50.4089 177.587 50.2223C178.075 50.0358 178.6 49.9423 179.163 49.9423C179.726 49.9423 180.252 50.0358 180.74 50.2223C181.227 50.4089 181.64 50.6703 181.997 51.0062C182.353 51.3422 182.617 51.7527 182.823 52.2006C183.011 52.6673 183.105 53.1712 183.105 53.7124C183.105 54.2537 183.011 54.7576 182.823 55.2242C182.635 55.6907 182.353 56.0827 181.997 56.4187C181.64 56.7546 181.227 57.0159 180.74 57.2026C180.252 57.3891 179.726 57.4824 179.163 57.4824ZM179.145 56.5493C179.558 56.5493 179.951 56.4746 180.29 56.344C180.645 56.2133 180.946 56.008 181.21 55.7467C181.472 55.4854 181.678 55.1869 181.809 54.8509C181.941 54.515 182.035 54.123 182.035 53.7312C182.035 53.3392 181.96 52.9472 181.809 52.6113C181.659 52.2753 181.472 51.9767 181.21 51.7155C180.946 51.4542 180.645 51.2489 180.29 51.1182C179.951 50.9876 179.558 50.9129 179.145 50.9129C178.732 50.9129 178.357 50.9876 178 51.1182C177.643 51.2675 177.343 51.4542 177.08 51.7155C176.818 51.9767 176.61 52.2753 176.461 52.6113C176.311 52.9472 176.236 53.3204 176.236 53.7312C176.236 54.1417 176.311 54.515 176.461 54.8509C176.61 55.1869 176.799 55.5042 177.08 55.7467C177.343 56.008 177.643 56.2133 178 56.344C178.357 56.4746 178.732 56.5493 179.145 56.5493Z" fill="#FFD7D8"/>
<path d="M195.942 57.389V49.9982H198.832C199.488 49.9982 200.033 50.1102 200.502 50.3155C200.953 50.5207 201.309 50.8195 201.552 51.1927C201.797 51.5846 201.928 52.0326 201.928 52.5739C201.928 53.115 201.797 53.563 201.552 53.9549C201.309 54.3469 200.953 54.6269 200.502 54.8322C200.033 55.0374 199.488 55.1494 198.832 55.1494H196.523L196.993 54.6642V57.389H195.923H195.942ZM197.011 54.7761L196.542 54.2536H198.813C199.488 54.2536 199.995 54.1043 200.351 53.8243C200.708 53.5443 200.878 53.1337 200.878 52.5924C200.878 52.0512 200.708 51.6593 200.351 51.3793C199.995 51.0993 199.488 50.95 198.813 50.95H196.542L197.011 50.4275V54.7947V54.7761Z" fill="#FFD7D8"/>
<path d="M214.841 57.389V49.9982H215.703L219.026 55.5787H218.556L221.841 49.9982H222.704V57.389H221.69V51.6033H221.916L218.988 56.4931H218.5L215.554 51.6033H215.816V57.389H214.802H214.841Z" fill="#FFD7D8"/>
<path d="M237.267 56.4746H241.584V57.389H236.197V49.9982H241.433V50.9127H237.248V56.4559L237.267 56.4746ZM237.173 53.2083H241.002V54.1042H237.173V53.2083Z" fill="#FFD7D8"/>
<path d="M254.552 57.389V49.9982H255.416L260.313 56.0639H259.863V49.9982H260.933V57.389H260.069L255.171 51.3233H255.622V57.389H254.552Z" fill="#FFD7D8"/>
<path d="M275.872 57.3891V50.9315H273.319V50.0169H279.456V50.9315H276.903V57.3891H275.853H275.872Z" fill="#FFD7D8"/>
<path d="M12.1814 55.6655C12.7981 56.1592 13.6705 56.2339 14.3775 55.89C16.7088 54.7231 19.0253 53.5564 21.2214 52.27C26.5912 49.1138 37.7519 42.3975 33.0589 36.2944C30.517 32.9886 25.087 32.48 21.823 29.8025C19.1155 27.5737 19.281 24.7765 21.2665 22.3084C29.0128 12.735 47.7996 6.88625 49.3789 6.28792C49.8602 6.10841 50.0408 5.62974 49.6196 5.34554C44.0844 1.63587 37.3006 -0.398479 30.0206 0.0652319C14.3474 1.0824 1.63733 13.6923 0.614512 29.2789C-0.0924376 39.9443 4.58546 49.5176 12.1814 55.6806V55.6655Z" fill="#FFD7D8"/>
<path d="M52.372 7.39522C51.635 6.78192 50.5971 6.61738 49.7247 7.0063C47.3181 8.0833 44.9566 9.20518 42.6703 10.4168C37.6012 13.0944 26.5909 18.7636 29.4789 24.6123C32.2164 30.1619 45.5432 29.9973 43.1967 37.5962C41.1962 44.0881 31.1786 48.9645 24.4701 52.39C21.4918 53.9008 18.4084 55.3219 15.2798 56.6831C14.7984 56.8925 14.7232 57.5657 15.1744 57.8349C21.7325 61.9934 29.9301 63.8331 38.6091 62.098C50.913 59.6449 60.6448 49.907 63.0364 37.671C65.4129 25.5397 60.7351 14.3808 52.387 7.39522H52.372Z" fill="#FFD7D8"/>
</svg>
